<svg id="chevrons-down" xmlns="http://www.w3.org/2000/svg" width="448.339" height="448.419" viewBox="0 0 448.339 448.419">
  <path id="Path_4" data-name="Path 4" d="M8,98A23.89,23.89,0,0,1,6,64L28,40c8-10,24-11,33-2L224,188,387,38c9-9,25-8,33,2l22,24a23.89,23.89,0,0,1-2,34L238,283a21.292,21.292,0,0,1-28,0Z" transform="translate(0.169 -31.831)"/>
  <path id="Path_5" data-name="Path 5" d="M442,256a23.89,23.89,0,0,1-2,34L238,475a21.292,21.292,0,0,1-28,0L8,290a23.89,23.89,0,0,1-2-34l22-24c8-10,24-11,33-2L224,380,387,230c9-9,25-8,33,2Z" transform="translate(0.169 -31.831)"/>
</svg>
