<svg id="chevrons-up" xmlns="http://www.w3.org/2000/svg" width="448.339" height="448.419" viewBox="0 0 448.339 448.419">
  <path id="Path_10" data-name="Path 10" d="M440,414a23.89,23.89,0,0,1,2,34l-22,24c-8,10-24,11-33,2L224,324,61,474c-9,9-25,8-33-2L6,448a23.89,23.89,0,0,1,2-34L210,229a21.292,21.292,0,0,1,28,0Z" transform="translate(0.169 -31.75)"/>
  <path id="Path_11" data-name="Path 11" d="M6,256a23.89,23.89,0,0,1,2-34L210,37a21.292,21.292,0,0,1,28,0L440,222a23.89,23.89,0,0,1,2,34l-22,24c-8,10-24,11-33,2L224,132,61,282c-9,9-25,8-33-2Z" transform="translate(0.169 -31.75)"/>
</svg>
