<svg id="Component_14_1" data-name="Component 14 – 1" xmlns="http://www.w3.org/2000/svg" width="523.419" height="448.339" viewBox="0 0 523.419 448.339">
  <path id="chevron-left" d="M248,452c10-8,11-24,2-33L100,256,250,93c9-9,8-25-2-33L224,38a23.89,23.89,0,0,0-34,2L5,242a21.292,21.292,0,0,0,0,28L190,472a23.89,23.89,0,0,0,34,2Z" transform="translate(0.25 -31.831)"/>
  <path id="chevron-right" d="M8,60C-2,68-3,84,6,93L156,256,6,419c-9,9-8,25,2,33l24,22a23.89,23.89,0,0,0,34-2L251,270a21.292,21.292,0,0,0,0-28L66,40a23.89,23.89,0,0,0-34-2Z" transform="translate(267.169 -31.831)"/>
</svg>
